# xmcd CD database file
#
# Track frame offsets:
#	150
#	15122
#	27205
#	46532
#	57307
#	74850
#	89965
#	111060
#	123542
#	140185
#
# Disc length: 2057 seconds
#
# Revision: 0
# Processed by: cddbd v1.5.1PL0 Copyright (c) Steve Scherf et al.
# Submitted via: CDex 1.51
#
DISCID=8e08070a
DTITLE=Big Joe Williams - Nine String Guitar Blues
DYEAR=1900
DGENRE=Blues
TTITLE0=I Got The Best King Biscuit
TTITLE1=Haunted House Blues
TTITLE2=I Done Stop Hollering
TTITLE3=I Got A Bad Mind
TTITLE4=Long Tall Woman, Skinny Mama Too
TTITLE5=Stack Of Dollars
TTITLE6=Indiana Woman Blues
TTITLE7=My Baby Keeps Hanging Around
TTITLE8=Jiving The Blues
TTITLE9=Jump, Baby--Jump!
EXTD=
EXTT0=
EXTT1=
EXTT2=
EXTT3=
EXTT4=
EXTT5=
EXTT6=
EXTT7=
EXTT8=
EXTT9=
PLAYORDER=
